<svg xmlns="http://www.w3.org/2000/svg" viewBox="0 0 37.51 26.1"><defs><style>.a{fill-rule:evenodd;}.b{fill:none;stroke:#000;stroke-miterlimit:22.93;stroke-width:0.71px;}</style></defs><title>logo</title><path class="a" d="M283,430.74h-1.17v-4.67H283v.26h-.86v4.16H283v.26Zm1.51-.76a1.76,1.76,0,0,1-.33,0,.75.75,0,0,1-.31-.06.39.39,0,0,1-.19-.18,1.06,1.06,0,0,1-.06-.44v-1.77h-.37v-.24h.37v-.68l.31-.2v.88h.5v.24h-.5v1.73a1.23,1.23,0,0,0,0,.28.22.22,0,0,0,.09.14.33.33,0,0,0,.18,0l.25,0,0,.25Zm1.81-2.54-.12.27a1,1,0,0,0-.36-.1.47.47,0,0,0-.17,0,.44.44,0,0,0-.15.09.63.63,0,0,0-.12.15.66.66,0,0,0-.07.19,2.56,2.56,0,0,0,0,.31c0,.13,0,.26,0,.37V430h-.31v-2.64h.27v.54c.13-.4.34-.59.62-.59a.88.88,0,0,1,.47.16Zm.65-.64h-.31v-.47h.31v.47Zm0,3.18h-.31v-2.64h.31V430Zm1.13-3.18h-.31v-.47h.31v.47Zm0,3.18h-.31v-2.64h.31V430Zm.87-2.48-.12-.19a.54.54,0,0,0,.23-.49h-.2v-.49h.43v.49a.76.76,0,0,1-.33.68Zm3.28,1.62a1.46,1.46,0,0,1-.43.68,1.13,1.13,0,0,1-.75.23,1.23,1.23,0,0,1-.62-.15,1.06,1.06,0,0,1-.41-.47,1.72,1.72,0,0,1-.16-.77,1.91,1.91,0,0,1,.07-.52,1.49,1.49,0,0,1,.16-.38,1.1,1.1,0,0,1,.22-.25,1.13,1.13,0,0,1,.3-.17,1.3,1.3,0,0,1,.46-.07,1.08,1.08,0,0,1,1.13.81l-.33,0a.77.77,0,0,0-.81-.59.85.85,0,0,0-.37.08.72.72,0,0,0-.27.22,1,1,0,0,0-.17.34,1.59,1.59,0,0,0-.06.44,1.42,1.42,0,0,0,.23.85.75.75,0,0,0,.65.32.9.9,0,0,0,.86-.71l.3,0Zm2.82-.46a1.51,1.51,0,0,1-.31,1,1.08,1.08,0,0,1-.87.36,1.18,1.18,0,0,1-.49-.09,1,1,0,0,1-.37-.28,1.29,1.29,0,0,1-.24-.44,1.77,1.77,0,0,1-.08-.55,2.14,2.14,0,0,1,.07-.56,1.29,1.29,0,0,1,.21-.43,1.08,1.08,0,0,1,.35-.29,1.17,1.17,0,0,1,.55-.11,1.1,1.1,0,0,1,.86.35,1.48,1.48,0,0,1,.32,1Zm-.32,0a1.6,1.6,0,0,0-.1-.61.86.86,0,0,0-.29-.39.76.76,0,0,0-.45-.13.75.75,0,0,0-.64.3,1.34,1.34,0,0,0-.22.81,1.37,1.37,0,0,0,.23.82.74.74,0,0,0,.64.32.82.82,0,0,0,.34-.07.74.74,0,0,0,.26-.21,1,1,0,0,0,.18-.36,1.72,1.72,0,0,0,.06-.48ZM296,430h-.31v-3.65H296V430Zm1.13,0h-.31v-3.65h.31V430Zm3-1.28h-2a1.27,1.27,0,0,0,.24.8.79.79,0,0,0,.65.29.83.83,0,0,0,.81-.64l.3.05a1.27,1.27,0,0,1-.44.65,1.19,1.19,0,0,1-.69.19,1.1,1.1,0,0,1-.88-.37,1.77,1.77,0,0,1,0-2,1.1,1.1,0,0,1,.88-.37q1.15,0,1.16,1.42Zm-.34-.26q-.07-.91-.83-.92a.78.78,0,0,0-.58.24,1.09,1.09,0,0,0-.28.68Zm3.18.68a1.46,1.46,0,0,1-.43.68,1.13,1.13,0,0,1-.75.23,1.23,1.23,0,0,1-.62-.15,1.06,1.06,0,0,1-.41-.47,1.72,1.72,0,0,1-.16-.77,1.91,1.91,0,0,1,.07-.52,1.49,1.49,0,0,1,.16-.38,1.1,1.1,0,0,1,.22-.25,1.13,1.13,0,0,1,.3-.17,1.3,1.3,0,0,1,.46-.07,1.08,1.08,0,0,1,1.13.81l-.33,0a.77.77,0,0,0-.81-.59.85.85,0,0,0-.37.08.72.72,0,0,0-.27.22,1,1,0,0,0-.17.34,1.59,1.59,0,0,0-.06.44,1.42,1.42,0,0,0,.23.85.75.75,0,0,0,.65.32.9.9,0,0,0,.86-.71l.3,0Zm1.61.86a1.76,1.76,0,0,1-.33,0A.75.75,0,0,1,304,430a.39.39,0,0,1-.19-.18,1.06,1.06,0,0,1-.06-.44v-1.77h-.37v-.24h.37v-.68l.31-.2v.88h.5v.24H304v1.73a1.23,1.23,0,0,0,0,.28.22.22,0,0,0,.09.14.33.33,0,0,0,.18,0l.25,0,0,.25Zm.76-3.18H305v-.47h.31v.47Zm0,3.18H305v-2.64h.31V430Zm3-1.32a1.51,1.51,0,0,1-.31,1,1.08,1.08,0,0,1-.87.36,1.18,1.18,0,0,1-.49-.09,1,1,0,0,1-.37-.28,1.29,1.29,0,0,1-.24-.44,1.77,1.77,0,0,1-.08-.55,2.14,2.14,0,0,1,.07-.56,1.29,1.29,0,0,1,.21-.43,1.07,1.07,0,0,1,.35-.29,1.17,1.17,0,0,1,.55-.11,1.1,1.1,0,0,1,.86.35,1.48,1.48,0,0,1,.32,1Zm-.32,0a1.6,1.6,0,0,0-.1-.61.86.86,0,0,0-.29-.39.76.76,0,0,0-.45-.13.75.75,0,0,0-.64.3,1.34,1.34,0,0,0-.22.81,1.37,1.37,0,0,0,.23.82.74.74,0,0,0,.64.32.82.82,0,0,0,.34-.07.74.74,0,0,0,.26-.21,1,1,0,0,0,.18-.36,1.72,1.72,0,0,0,.06-.48Zm3,1.32h-.31v-1.64a.9.9,0,0,0-.16-.61.58.58,0,0,0-.45-.18.76.76,0,0,0-.28.05.78.78,0,0,0-.24.15.8.8,0,0,0-.18.23,1,1,0,0,0-.09.29,4.07,4.07,0,0,0,0,.56V430H309v-2.64h.31v.39a1.05,1.05,0,0,1,.85-.45q.9,0,.9,1V430Zm1.69.76h-1.17v-.26h.87v-4.16h-.87v-.26h1.17Z" transform="translate(-278.69 -404.64)"/><path class="a" d="M303.12,406.17v2.57a13.93,13.93,0,0,0,2.69-1.5v-1.08a1.2,1.2,0,0,0-1.35-1.36,1.21,1.21,0,0,0-1.35,1.36Zm0,3,.48,0a9.53,9.53,0,0,0,1.41-.26c.27-.07.54-.15.8-.24v12.8a1.35,1.35,0,0,1-2.69,0Z" transform="translate(-278.69 -404.64)"/><path class="a" d="M308.47,406.17v2.57a13.92,13.92,0,0,0,2.69-1.5v-1.08a1.2,1.2,0,0,0-1.35-1.36,1.21,1.21,0,0,0-1.35,1.36Zm0,3,.48,0a9.53,9.53,0,0,0,1.41-.26c.27-.07.54-.15.8-.24v12.8a1.35,1.35,0,0,1-2.69,0Z" transform="translate(-278.69 -404.64)"/><path class="a" d="M292.55,410.74v10.42q0,1.58,1.35,1.61c.88,0,1.33-.54,1.35-1.61v-7.47a3.07,3.07,0,0,1,.92-1.2,3.17,3.17,0,0,1,1.43-.56,3,3,0,0,1,.83.15,1.69,1.69,0,0,0,1.37,0,1.25,1.25,0,0,0,.63-.76,1.22,1.22,0,0,0-.13-1,2,2,0,0,0-1.15-.76,4.38,4.38,0,0,0-1.17-.15,3.67,3.67,0,0,0-2,.61,5,5,0,0,0-.78.63q0-1.52-1.33-1.54C293,409.11,292.57,409.65,292.55,410.74Z" transform="translate(-278.69 -404.64)"/><path class="a" d="M289.42,409.24H286.1v-3.52a1.09,1.09,0,0,0-1.09-1.09h-.52a1.09,1.09,0,0,0-1.09,1.09v3.52h-3.09c-1.08,0-1.63.45-1.63,1.35s.54,1.33,1.63,1.35h3.09V421q0,1.58,1.35,1.61c.88,0,1.33-.53,1.35-1.61v-9.09h3.32c1.06,0,1.59-.45,1.61-1.35S290.49,409.26,289.42,409.24Z" transform="translate(-278.69 -404.64)"/><rect class="b" x="35" y="15.63" width="2.15" height="2.15" rx="0.94" ry="0.94"/></svg>